# xmcd
#
# Track frame offsets:
#	183
#	13988
#	30763
#	47593
#	64515
#	88293
#	103055
#	118425
#	137228
#	157433
#	170283
#
# Disc length: 2483 seconds
#
# Revision: 0
# Processed by: cddbd v1.4PL0 Copyright (c) Steve Scherf et al.
# Submitted via: audiograbber 1.81.03
#
DISCID=9909b10b
DTITLE=Savoy Brown - Kings Of Boogie
DYEAR=1989
DGENRE=Rock
TTITLE0=Kings Of Boogie
TTITLE1=Deep In My Heart
TTITLE2=A Man Alone
TTITLE3=No Win Love
TTITLE4=Mean Business
TTITLE5=Bad State Of Mind
TTITLE6=Heartbreaks Make You Strong
TTITLE7=Since You've Been Gone
TTITLE8=Caught Me In The Saddle
TTITLE9=All Burned Out
TTITLE10=Until The Sky Fades Away
EXTD=
EXTT0=
EXTT1=
EXTT2=
EXTT3=
EXTT4=
EXTT5=
EXTT6=
EXTT7=
EXTT8=
EXTT9=
EXTT10=
PLAYORDER=
